# xmcd
#
# Track frame offsets: 
#        182
#        23792
#        41725
#        54310
#        77250
#        94250
#        112930
#        142832
#        162345
#        179715
#        200295
#        216465
#        233857
#        259832
#        282305
#
# Disc length: 4121 seconds
#
# Revision: 0
# Processed by: cddbd v1.5.2PL0 Copyright (c) Steve Scherf et al.
# Submitted via: ExactAudioCopyFreeDBPlugin 1.0
#
DISCID=cf10170f
DTITLE=Günther Straub - Magic Boogie
DYEAR=1998
DGENRE=Boogie woogie
TTITLE0=Magic boogie
TTITLE1=Jimmy's rock
TTITLE2=Texas stomp
TTITLE3=Rejane boogie
TTITLE4=Honky tonk music
TTITLE5=Frisco blues
TTITLE6=Rocking night express
TTITLE7=Sweet patootie blues
TTITLE8=Suitcase blues
TTITLE9=Blues for a lost girl
TTITLE10=Keep on gwine
TTITLE11=Mecca flat blues
TTITLE12=Dm blues
TTITLE13=Closin' hour blues
TTITLE14=White Christmas blues
EXTD=
EXTT0=
EXTT1=
EXTT2=
EXTT3=
EXTT4=
EXTT5=
EXTT6=
EXTT7=
EXTT8=
EXTT9=
EXTT10=
EXTT11=
EXTT12=
EXTT13=
EXTT14=
PLAYORDER=
